<svg width="110" height="110" viewBox="0 0 110 110" fill="#fff" xmlns="http://www.w3.org/2000/svg">
<mask id="path-1-outside-1_1_7" maskUnits="userSpaceOnUse" x="21" y="24" width="70" height="66" fill="#fff">
<rect fill="white" x="21" y="24" width="70" height="66"/>
<path d="M23.3653 88V78.928H30.3853V35.296H23.3653V26.224H52.3093V35.296H45.2893V55.276L66.0253 35.296H60.0853V26.224H87.4093V35.296H81.3613L59.4373 56.356L82.3333 78.928H88.3813V88H59.8693V78.928H65.4853L45.2893 58.624V78.928H52.3093V88H23.3653Z"/>
</mask>
<path d="M23.3653 88H21.3653V90H23.3653V88ZM23.3653 78.928V76.928H21.3653V78.928H23.3653ZM30.3853 78.928V80.928H32.3853V78.928H30.3853ZM30.3853 35.296H32.3853V33.296H30.3853V35.296ZM23.3653 35.296H21.3653V37.296H23.3653V35.296ZM23.3653 26.224V24.224H21.3653V26.224H23.3653ZM52.3093 26.224H54.3093V24.224H52.3093V26.224ZM52.3093 35.296V37.296H54.3093V35.296H52.3093ZM45.2893 35.296V33.296H43.2893V35.296H45.2893ZM45.2893 55.276H43.2893V59.9804L46.677 56.7162L45.2893 55.276ZM66.0253 35.296L67.413 36.7362L70.9834 33.296H66.0253V35.296ZM60.0853 35.296H58.0853V37.296H60.0853V35.296ZM60.0853 26.224V24.224H58.0853V26.224H60.0853ZM87.4093 26.224H89.4093V24.224H87.4093V26.224ZM87.4093 35.296V37.296H89.4093V35.296H87.4093ZM81.3613 35.296V33.296H80.5563L79.9758 33.8536L81.3613 35.296ZM59.4373 56.356L58.0518 54.9137L56.5696 56.3374L58.0332 57.7803L59.4373 56.356ZM82.3333 78.928L80.9292 80.3523L81.5132 80.928H82.3333V78.928ZM88.3813 78.928H90.3813V76.928H88.3813V78.928ZM88.3813 88V90H90.3813V88H88.3813ZM59.8693 88H57.8693V90H59.8693V88ZM59.8693 78.928V76.928H57.8693V78.928H59.8693ZM65.4853 78.928V80.928H70.2956L66.9033 77.5176L65.4853 78.928ZM45.2893 58.624L46.7073 57.2136L43.2893 53.7773V58.624H45.2893ZM45.2893 78.928H43.2893V80.928H45.2893V78.928ZM52.3093 78.928H54.3093V76.928H52.3093V78.928ZM52.3093 88V90H54.3093V88H52.3093ZM25.3653 88V78.928H21.3653V88H25.3653ZM23.3653 80.928H30.3853V76.928H23.3653V80.928ZM32.3853 78.928V35.296H28.3853V78.928H32.3853ZM30.3853 33.296H23.3653V37.296H30.3853V33.296ZM25.3653 35.296V26.224H21.3653V35.296H25.3653ZM23.3653 28.224H52.3093V24.224H23.3653V28.224ZM50.3093 26.224V35.296H54.3093V26.224H50.3093ZM52.3093 33.296H45.2893V37.296H52.3093V33.296ZM43.2893 35.296V55.276H47.2893V35.296H43.2893ZM46.677 56.7162L67.413 36.7362L64.6376 33.8558L43.9016 53.8358L46.677 56.7162ZM66.0253 33.296H60.0853V37.296H66.0253V33.296ZM62.0853 35.296V26.224H58.0853V35.296H62.0853ZM60.0853 28.224H87.4093V24.224H60.0853V28.224ZM85.4093 26.224V35.296H89.4093V26.224H85.4093ZM87.4093 33.296H81.3613V37.296H87.4093V33.296ZM79.9758 33.8536L58.0518 54.9137L60.8228 57.7983L82.7468 36.7383L79.9758 33.8536ZM58.0332 57.7803L80.9292 80.3523L83.7374 77.5037L60.8414 54.9317L58.0332 57.7803ZM82.3333 80.928H88.3813V76.928H82.3333V80.928ZM86.3813 78.928V88H90.3813V78.928H86.3813ZM88.3813 86H59.8693V90H88.3813V86ZM61.8693 88V78.928H57.8693V88H61.8693ZM59.8693 80.928H65.4853V76.928H59.8693V80.928ZM66.9033 77.5176L46.7073 57.2136L43.8713 60.0344L64.0673 80.3384L66.9033 77.5176ZM43.2893 58.624V78.928H47.2893V58.624H43.2893ZM45.2893 80.928H52.3093V76.928H45.2893V80.928ZM50.3093 78.928V88H54.3093V78.928H50.3093ZM52.3093 86H23.3653V90H52.3093V86Z" fill="#fff" mask="url(#path-1-outside-1_1_7)"/>
<path d="M77 59.554V51.0293L83.9953 54.7069V63.7331L77 59.554ZM85.9953 63.7331V54.7069L92.9907 51.0293V59.554L85.9953 63.7331ZM78.0431 49.3181L84.9953 45.1649L91.9476 49.3181L84.9953 52.973L78.0431 49.3181Z" stroke="#EF2E2E" stroke-width="2"/>
</svg>
