<svg width="110" height="110" viewBox="0 0 110 110" fill="none" xmlns="http://www.w3.org/2000/svg">
<path d="M23.3653 88V78.928H30.3853V35.296H23.3653V26.224H52.3093V35.296H45.2893V55.276L66.0253 35.296H60.0853V26.224H87.4093V35.296H81.3613L59.4373 56.356L82.3333 78.928H88.3813V88H59.8693V78.928H65.4853L45.2893 58.624V78.928H52.3093V88H23.3653Z" fill="#ECECEC"/>
<path d="M77.5 59.2703V51.8571L83.4953 55.0089V62.8519L77.5 59.2703ZM86.4953 62.8519V55.0089L92.4907 51.8571V59.2703L86.4953 62.8519ZM79.0646 49.2903L84.9953 45.7473L90.926 49.2903L84.9953 52.4082L79.0646 49.2903Z" stroke="#EF2E2E" stroke-width="3"/>
</svg>
