<svg width="66" height="62" viewBox="0 0 66 62" fill="none" xmlns="http://www.w3.org/2000/svg">
<mask id="path-1-outside-1_1_2" maskUnits="userSpaceOnUse" x="-2" y="-2" width="70" height="66" fill="#fff">
<rect fill="white" x="-2" y="-2" width="70" height="66"/>
<path d="M0.365282 62V52.928H7.38528V9.296H0.365282V0.223997H29.3093V9.296H22.2893V29.276L43.0253 9.296H37.0853V0.223997H64.4093V9.296H58.3613L36.4373 30.356L59.3333 52.928H65.3813V62H36.8693V52.928H42.4853L22.2893 32.624V52.928H29.3093V62H0.365282Z"/>
</mask>
<path d="M0.365282 62H-1.63472V64H0.365282V62ZM0.365282 52.928V50.928H-1.63472V52.928H0.365282ZM7.38528 52.928V54.928H9.38528V52.928H7.38528ZM7.38528 9.296H9.38528V7.296H7.38528V9.296ZM0.365282 9.296H-1.63472V11.296H0.365282V9.296ZM0.365282 0.223997V-1.776H-1.63472V0.223997H0.365282ZM29.3093 0.223997H31.3093V-1.776H29.3093V0.223997ZM29.3093 9.296V11.296H31.3093V9.296H29.3093ZM22.2893 9.296V7.296H20.2893V9.296H22.2893ZM22.2893 29.276H20.2893V33.9804L23.677 30.7162L22.2893 29.276ZM43.0253 9.296L44.413 10.7362L47.9834 7.296H43.0253V9.296ZM37.0853 9.296H35.0853V11.296H37.0853V9.296ZM37.0853 0.223997V-1.776H35.0853V0.223997H37.0853ZM64.4093 0.223997H66.4093V-1.776H64.4093V0.223997ZM64.4093 9.296V11.296H66.4093V9.296H64.4093ZM58.3613 9.296V7.296H57.5563L56.9758 7.85365L58.3613 9.296ZM36.4373 30.356L35.0518 28.9137L33.5696 30.3374L35.0332 31.7803L36.4373 30.356ZM59.3333 52.928L57.9292 54.3523L58.5132 54.928H59.3333V52.928ZM65.3813 52.928H67.3813V50.928H65.3813V52.928ZM65.3813 62V64H67.3813V62H65.3813ZM36.8693 62H34.8693V64H36.8693V62ZM36.8693 52.928V50.928H34.8693V52.928H36.8693ZM42.4853 52.928V54.928H47.2956L43.9033 51.5176L42.4853 52.928ZM22.2893 32.624L23.7073 31.2136L20.2893 27.7773V32.624H22.2893ZM22.2893 52.928H20.2893V54.928H22.2893V52.928ZM29.3093 52.928H31.3093V50.928H29.3093V52.928ZM29.3093 62V64H31.3093V62H29.3093ZM2.36528 62V52.928H-1.63472V62H2.36528ZM0.365282 54.928H7.38528V50.928H0.365282V54.928ZM9.38528 52.928V9.296H5.38528V52.928H9.38528ZM7.38528 7.296H0.365282V11.296H7.38528V7.296ZM2.36528 9.296V0.223997H-1.63472V9.296H2.36528ZM0.365282 2.224H29.3093V-1.776H0.365282V2.224ZM27.3093 0.223997V9.296H31.3093V0.223997H27.3093ZM29.3093 7.296H22.2893V11.296H29.3093V7.296ZM20.2893 9.296V29.276H24.2893V9.296H20.2893ZM23.677 30.7162L44.413 10.7362L41.6376 7.85577L20.9016 27.8358L23.677 30.7162ZM43.0253 7.296H37.0853V11.296H43.0253V7.296ZM39.0853 9.296V0.223997H35.0853V9.296H39.0853ZM37.0853 2.224H64.4093V-1.776H37.0853V2.224ZM62.4093 0.223997V9.296H66.4093V0.223997H62.4093ZM64.4093 7.296H58.3613V11.296H64.4093V7.296ZM56.9758 7.85365L35.0518 28.9137L37.8228 31.7983L59.7468 10.7383L56.9758 7.85365ZM35.0332 31.7803L57.9292 54.3523L60.7374 51.5037L37.8414 28.9317L35.0332 31.7803ZM59.3333 54.928H65.3813V50.928H59.3333V54.928ZM63.3813 52.928V62H67.3813V52.928H63.3813ZM65.3813 60H36.8693V64H65.3813V60ZM38.8693 62V52.928H34.8693V62H38.8693ZM36.8693 54.928H42.4853V50.928H36.8693V54.928ZM43.9033 51.5176L23.7073 31.2136L20.8713 34.0344L41.0673 54.3384L43.9033 51.5176ZM20.2893 32.624V52.928H24.2893V32.624H20.2893ZM22.2893 54.928H29.3093V50.928H22.2893V54.928ZM27.3093 52.928V62H31.3093V52.928H27.3093ZM29.3093 60H0.365282V64H29.3093V60Z" fill="#fff" mask="url(#path-1-outside-1_1_2)"/>
</svg>
