<svg width="16" height="22" viewBox="0 0 16 22" fill="none" xmlns="http://www.w3.org/2000/svg">
<path d="M7 21C7 21.5523 7.44772 22 8 22C8.55228 22 9 21.5523 9 21L7 21ZM8.70711 4.29289C8.31658 3.90237 7.68342 3.90237 7.29289 4.29289L0.928932 10.6569C0.538407 11.0474 0.538407 11.6805 0.928932 12.0711C1.31946 12.4616 1.95262 12.4616 2.34315 12.0711L8 6.41421L13.6569 12.0711C14.0474 12.4616 14.6805 12.4616 15.0711 12.0711C15.4616 11.6805 15.4616 11.0474 15.0711 10.6569L8.70711 4.29289ZM9 21L9 5L7 5L7 21L9 21Z" fill="#fff"/>
<line x1="15" y1="1" x2="1" y2="0.999999" stroke="#fff" stroke-width="2" stroke-linecap="round"/>
</svg>
